HIERARCHY
ROOT Hips
{
	OFFSET 0.000000 0.000000 0.000000
	CHANNELS 6 Xposition Yposition Zposition Zrotation Xrotation Yrotation
	JOINT Spine
	{
		OFFSET 0.000000 -0.000000 0.070167
		CHANNELS 6 Xposition Yposition Zposition Zrotation Xrotation Yrotation
		JOINT Spine1
		{
			OFFSET 0.000000 -0.000000 0.166666
			CHANNELS 6 Xposition Yposition Zposition Zrotation Xrotation Yrotation
			JOINT Neck
			{
				OFFSET 0.000000 -0.000000 0.183780
				CHANNELS 6 Xposition Yposition Zposition Zrotation Xrotation Yrotation
				JOINT Head
				{
					OFFSET 0.000000 -0.017114 0.132633
					CHANNELS 6 Xposition Yposition Zposition Zrotation Xrotation Yrotation
					End Site
					{
						OFFSET 0.000000 -0.000000 0.171140
					}
				}
			}
			JOINT LeftShoulder
			{
				OFFSET 0.034466 0.004091 0.144174
				CHANNELS 6 Xposition Yposition Zposition Zrotation Xrotation Yrotation
				JOINT LeftArm
				{
					OFFSET 0.121044 0.000000 0.000000
					CHANNELS 6 Xposition Yposition Zposition Zrotation Xrotation Yrotation
					JOINT LeftForeArm
					{
						OFFSET 0.257070 0.000000 0.000000
						CHANNELS 6 Xposition Yposition Zposition Zrotation Xrotation Yrotation
						JOINT LeftHand
						{
							OFFSET 0.224060 0.000000 0.000000
							CHANNELS 6 Xposition Yposition Zposition Zrotation Xrotation Yrotation
							End Site
							{
								OFFSET 0.128355 0.000000 0.000000
							}
						}
					}
				}
			}
			JOINT RightShoulder
			{
				OFFSET -0.033538 0.004091 0.144174
				CHANNELS 6 Xposition Yposition Zposition Zrotation Xrotation Yrotation
				JOINT RightArm
				{
					OFFSET -0.121044 0.000000 0.000000
					CHANNELS 6 Xposition Yposition Zposition Zrotation Xrotation Yrotation
					JOINT RightForeArm
					{
						OFFSET -0.257070 0.000000 0.000000
						CHANNELS 6 Xposition Yposition Zposition Zrotation Xrotation Yrotation
						JOINT RightHand
						{
							OFFSET -0.224060 0.000000 0.000000
							CHANNELS 6 Xposition Yposition Zposition Zrotation Xrotation Yrotation
							End Site
							{
								OFFSET -0.128355 0.000000 0.000000
							}
						}
					}
				}
			}
		}
	}
	JOINT LeftUpLeg
	{
		OFFSET 0.085570 0.000000 0.000000
		CHANNELS 6 Xposition Yposition Zposition Zrotation Xrotation Yrotation
		JOINT LeftLeg
		{
			OFFSET 0.000000 0.000000 -0.385526
			CHANNELS 6 Xposition Yposition Zposition Zrotation Xrotation Yrotation
			JOINT LeftFoot
			{
				OFFSET 0.000000 0.000000 -0.365921
				CHANNELS 6 Xposition Yposition Zposition Zrotation Xrotation Yrotation
				JOINT LeftToeBase
				{
					OFFSET 0.000000 -0.128355 -0.055620
					CHANNELS 6 Xposition Yposition Zposition Zrotation Xrotation Yrotation
					End Site
					{
						OFFSET 0.000000 -0.034228 0.000000
					}
				}
			}
		}
	}
	JOINT RightUpLeg
	{
		OFFSET -0.085570 0.000000 0.000000
		CHANNELS 6 Xposition Yposition Zposition Zrotation Xrotation Yrotation
		JOINT RightLeg
		{
			OFFSET 0.000000 0.000000 -0.385526
			CHANNELS 6 Xposition Yposition Zposition Zrotation Xrotation Yrotation
			JOINT RightFoot
			{
				OFFSET 0.000000 0.000000 -0.365921
				CHANNELS 6 Xposition Yposition Zposition Zrotation Xrotation Yrotation
				JOINT RightToeBase
				{
					OFFSET 0.000000 -0.128355 -0.055620
					CHANNELS 6 Xposition Yposition Zposition Zrotation Xrotation Yrotation
					End Site
					{
						OFFSET 0.000000 -0.034228 0.000000
					}
				}
			}
		}
	}
}
MOTION
Frames: 6
Frame Time: 0.016667
-0.057198 0.864015 0.815031 -3.904918 -6.515009 -0.691193 0.000000 -0.000000 0.070167 -0.124928 2.476492 -1.256385 -0.000000 0.000000 0.166666 -0.100047 -2.362994 -2.390327 -0.000000 0.000000 0.183780 1.012067 12.533862 3.118100 -0.000000 -0.017114 0.132633 1.044577 2.501717 0.779534 0.034466 0.004091 0.144174 -3.751717 5.359619 -9.690629 0.121044 0.000000 0.000000 10.091484 2.136396 42.854629 0.257070 0.000000 0.000000 -13.284702 6.565343 -9.843831 0.224060 0.000000 0.000000 -7.365611 5.787872 -5.697576 -0.033538 0.004091 0.144174 -11.670444 3.067878 13.798276 -0.121044 -0.000000 0.000000 3.314535 0.525423 -40.612961 -0.257070 -0.000000 -0.000000 7.960976 3.128008 9.135596 -0.224060 -0.000000 0.000000 10.047040 1.524008 17.496863 0.085570 -0.000000 0.000000 0.933691 -1.563991 -7.033498 -0.000000 0.000000 -0.385526 14.693491 28.347624 -7.792952 -0.000000 0.000000 -0.365921 13.076361 -4.267478 0.608788 0.000000 -0.128355 -0.055620 -0.000003 0.000001 -0.000001 -0.085570 -0.000000 -0.000000 -5.039216 6.713199 2.826486 0.000000 0.000000 -0.385526 12.559358 9.969428 -4.821971 -0.000000 -0.000000 -0.365921 -12.343793 -6.142699 6.611114 0.000000 -0.128355 -0.055620 -0.000000 0.000000 -0.000001 
-0.058732 0.863178 0.814490 -3.559110 -6.615693 -0.762665 -0.000000 -0.000000 0.070167 -0.121210 2.697959 -1.432464 0.000000 -0.000000 0.166666 -0.089316 -2.002755 -2.195174 0.000000 -0.000000 0.183780 0.777324 12.900107 2.975842 0.000000 -0.017114 0.132633 0.862834 1.263365 1.092711 0.034466 0.004091 0.144174 -3.663890 5.258182 -9.449824 0.121044 0.000000 -0.000000 9.529594 2.531821 44.345638 0.257070 0.000000 0.000000 -14.953973 6.203147 -10.170945 0.224060 -0.000000 -0.000000 -6.808049 5.253105 -6.439910 -0.033538 0.004091 0.144174 -11.839309 3.092040 13.374903 -0.121044 -0.000000 0.000000 3.510989 1.127791 -41.830046 -0.257070 0.000000 -0.000000 7.960976 3.128007 9.135595 -0.224060 -0.000000 0.000000 10.047039 1.524007 17.496861 0.085570 -0.000000 -0.000000 0.961590 -3.081783 -6.966148 -0.000000 0.000000 -0.385526 15.494494 30.771727 -8.780381 0.000000 0.000000 -0.365921 12.950209 -3.987512 0.353781 0.000000 -0.128355 -0.055620 -0.000000 -0.000001 0.000001 -0.085570 0.000000 -0.000000 -5.153405 6.839672 2.741564 0.000000 0.000000 -0.385526 12.364779 10.188711 -4.720488 -0.000000 0.000000 -0.365921 -12.273318 -6.627940 6.888241 -0.000000 -0.128355 -0.055620 0.000000 0.000001 -0.000000 
-0.060220 0.862228 0.814099 -3.214567 -6.695236 -0.859214 0.000000 -0.000000 0.070167 -0.065450 2.880614 -1.598861 -0.000000 -0.000000 0.166666 -0.063084 -1.632903 -1.934834 -0.000000 0.000000 0.183780 0.653274 12.667733 2.863355 0.000000 -0.017114 0.132633 0.745177 0.994357 1.165737 0.034466 0.004091 0.144174 -3.377539 5.502397 -9.303529 0.121044 -0.000000 0.000000 8.705938 2.405979 45.912672 0.257070 -0.000000 0.000000 -16.250991 6.058394 -10.590736 0.224060 -0.000000 -0.000000 -6.965733 4.893423 -5.680311 -0.033538 0.004091 0.144174 -12.043740 3.095217 12.845312 -0.121044 -0.000000 -0.000000 3.627474 1.620696 -42.955172 -0.257070 0.000000 0.000000 7.960976 3.128007 9.135599 -0.224060 0.000000 0.000000 10.047040 1.524007 17.496863 0.085570 0.000000 0.000000 0.854584 -4.511529 -6.854240 0.000000 0.000000 -0.385526 17.543588 32.787172 -10.251334 -0.000000 -0.000000 -0.365921 11.785847 -3.682734 -0.788739 0.000000 -0.128355 -0.055620 -0.000000 0.000002 -0.000002 -0.085570 -0.000000 0.000000 -5.218381 6.942656 2.679234 0.000000 0.000000 -0.385526 12.233691 10.426199 -4.664612 0.000000 0.000000 -0.365921 -12.528968 -6.933251 6.717375 -0.000000 -0.128355 -0.055620 0.000000 0.000000 0.000000 
-0.061620 0.860895 0.813807 -2.882368 -6.872242 -0.949016 -0.000000 -0.000000 0.070167 0.036686 3.166335 -1.463817 -0.000000 -0.000000 0.166666 -0.013020 -1.326572 -2.267944 -0.000000 -0.000000 0.183780 0.510528 12.240737 3.100855 -0.000000 -0.017114 0.132633 0.570684 1.151949 1.050970 0.034466 0.004091 0.144174 -2.927063 5.830506 -8.492028 0.121044 -0.000000 0.000000 7.336064 2.337509 47.169853 0.257070 -0.000000 0.000000 -17.790377 4.882024 -11.262973 0.224060 0.000000 -0.000000 -7.143693 3.479663 -5.799126 -0.033538 0.004091 0.144174 -12.410712 3.053922 12.510243 -0.121044 -0.000000 0.000000 3.981107 2.164295 -44.014651 -0.257070 0.000000 0.000000 7.960977 3.128008 9.135590 -0.224060 0.000000 0.000000 10.047039 1.524007 17.496863 0.085570 0.000000 0.000000 0.853197 -5.763095 -6.723138 0.000000 0.000000 -0.385526 18.719962 34.737895 -11.432164 0.000000 0.000000 -0.365921 11.311251 -3.639205 -0.557576 0.000000 -0.128355 -0.055620 -0.000001 -0.000001 -0.000001 -0.085570 0.000000 -0.000000 -5.414792 7.180143 2.642339 0.000000 -0.000000 -0.385526 11.939131 10.639389 -4.500290 0.000000 0.000000 -0.365921 -12.396623 -7.118760 6.507241 -0.000000 -0.128355 -0.055620 0.000001 -0.000002 0.000000 
-0.062937 0.859737 0.813628 -2.560846 -6.983718 -1.058977 -0.000000 0.000000 0.070167 0.051994 3.246563 -1.626475 -0.000000 -0.000000 0.166666 -0.008578 -0.792681 -1.997374 0.000000 -0.000000 0.183780 0.449882 11.918329 2.985408 -0.000000 -0.017114 0.132633 0.512816 1.081378 1.121250 0.034466 0.004091 0.144174 -2.731694 5.805392 -8.027632 0.121044 -0.000000 -0.000000 6.464555 2.630752 48.426502 0.257070 -0.000000 -0.000000 -19.154548 5.105992 -11.285346 0.224060 0.000000 -0.000000 -7.368373 3.606251 -6.302311 -0.033538 0.004091 0.144174 -12.432912 3.244388 11.918321 -0.121044 0.000000 0.000000 4.170828 2.433115 -45.253080 -0.257070 0.000000 -0.000000 7.960976 3.128008 9.135593 -0.224060 -0.000000 0.000000 10.047039 1.524007 17.496860 0.085570 0.000000 0.000000 0.905219 -6.996342 -6.560879 -0.000000 0.000000 -0.385526 19.363100 36.515544 -12.314841 -0.000000 0.000000 -0.365921 10.519725 -3.999642 -0.214801 0.000000 -0.128355 -0.055620 0.000001 0.000000 -0.000001 -0.085570 -0.000000 0.000000 -5.563190 7.297915 2.646856 -0.000000 -0.000000 -0.385526 12.103134 10.881039 -4.533873 0.000000 0.000000 -0.365921 -12.755358 -7.401413 6.495662 0.000000 -0.128355 -0.055620 0.000000 -0.000001 0.000000 
-0.064135 0.858287 0.813543 -2.263819 -7.144050 -1.184235 0.000000 -0.000000 0.070167 0.150985 3.416068 -1.549527 -0.000000 -0.000000 0.166666 0.029295 -0.366000 -2.228019 0.000000 0.000000 0.183780 0.351147 11.601944 3.484137 -0.000000 -0.017114 0.132633 0.333075 1.040290 0.638237 0.034466 0.004091 0.144174 -2.512592 5.912855 -7.288901 0.121044 0.000000 -0.000000 3.284885 5.166487 50.263926 0.257070 0.000000 -0.000000 -21.112639 3.957493 -13.528376 0.224060 0.000000 0.000000 -6.784997 1.777881 -5.908953 -0.033538 0.004091 0.144174 -12.713509 3.246400 11.639296 -0.121044 0.000000 -0.000000 4.520103 2.734206 -46.566642 -0.257070 -0.000000 -0.000000 7.960977 3.128007 9.135593 -0.224060 0.000000 -0.000000 10.047039 1.524008 17.496867 0.085570 -0.000000 0.000000 1.021293 -8.071295 -6.351079 -0.000000 0.000000 -0.385526 19.025461 38.198513 -12.562797 0.000000 -0.000000 -0.365921 9.592751 -4.384748 -0.410900 0.000000 -0.128355 -0.055620 -0.000001 0.000000 -0.000000 -0.085570 -0.000000 0.000000 -5.713002 7.462966 2.700770 0.000000 0.000000 -0.385526 12.195951 11.131989 -4.579252 -0.000000 0.000000 -0.365921 -13.018469 -7.569984 6.517089 -0.000000 -0.128355 -0.055620 -0.000000 0.000000 -0.000000 
